<svg width="1390" height="987" viewBox="0 0 1390 987" fill="none" xmlns="http://www.w3.org/2000/svg">
<path d="M-3 985.5L66 860L89.5 895L106.5 873.5L118.5 885L141.5 842.5L153 860L189.5 785L203 804L220.5 785L255 827.5L276.5 717.5L290 785L301.5 750L319 765.5L332.5 717.5L351.5 734.5L371 636.5L388.5 650L407.5 636.5L425 603.5L446 636.5L523.5 455L544.5 488L564 466.5L581 488L602.5 524.5L619.5 488L639 524.5L668 426L677.5 451L693 426L712.5 451L735.5 382L793.5 488L812.5 466.5L828 507L899.5 382L915 407L955.5 335.5L967 382L992 349L1011 382L1065 262L1075 297L1094 279.5L1109.5 297L1148 198.5L1158 279.5L1190.5 173.5L1200 204.5L1239 123.5L1254 158L1302.5 31L1318 61.5L1341 31L1362 48L1387.5 2" stroke="#08FF03" stroke-width="5"/>
</svg>
